{"title":"Anne.2018.HDRip.XviD.AC3.LLG","magnet":"magnet:?xt=urn:btih:16d758fe2b0f490aa7471a6f49621dea8f2c1f10&dn=Anne.2018.HDRip.XviD.AC3.LLG&tr=udp%3A%2F%2Ftracker.leechers-paradise.org%3A6969&tr=udp%3A%2F%2Fzer0day.ch%3A1337&tr=udp%3A%2F%2Fopen.demonii.com%3A1337&tr=udp%3A%2F%2Ftracker.coppersurfer.tk%3A6969&tr=udp%3A%2F%2Fexodus.desync.com%3A6969","uploader":"LifeLongg","categoryP":"video","categoryS":"movies","size":"977768318","seeders":"9","leechers":"4","description":"******************************Screenshots:********************\r\n <a href=\"\nhttp://picserver4u.com/apple/0991.html\" rel=\"nofollow\" target=\"_NEW\">\nhttp://picserver4u.com/apple/0991.html</a>\r\n <a href=\"\nhttp://picserver4u.com/apple/0992.html\" rel=\"nofollow\" target=\"_NEW\">\nhttp://picserver4u.com/apple/0992.html</a>\r\n <a href=\"\nhttp://picserver4u.com/apple/0993.html\" rel=\"nofollow\" target=\"_NEW\">\nhttp://picserver4u.com/apple/0993.html</a>\r\n <a href=\"\nhttp://picserver4u.com/apple/0994.html\" rel=\"nofollow\" target=\"_NEW\">\nhttp://picserver4u.com/apple/0994.html</a>\r\n <a href=\"\nhttp://picserver4u.com/apple/0995.html\" rel=\"nofollow\" target=\"_NEW\">\nhttp://picserver4u.com/apple/0995.html</a>\r\n\r\n************************************************************** \r\n\r\nComplete name                            : Anne.2018.HDRip.XviD.AC3.LLG.mp4\r\nFormat                                   : MPEG-4\r\nFormat profile                           : Base Media\r\nCodec ID                                 : isom (isom/iso2/avc1/mp41)\r\nFile size                                : 913 MiB\r\nDuration                                 : 1 h 18 min\r\nOverall bit rate                         : 1 627 kb/s\r\nWriting application                      : Lavf57.56.101\r\n\r\nVideo\r\nID                                       : 1\r\nFormat                                   : AVC\r\nFormat/Info                              : Advanced Video Codec\r\nFormat profile                           : <a href=\"/cdn-cgi/l/email-protection\" class=\"__cf_email__\" data-cfemail=\"1159787679515d22\">[email&#xA0;protected]</a>\r\nFormat settings                          : CABAC / 4 Ref Frames\r\nFormat settings, CABAC                   : Yes\r\nFormat settings, RefFrames               : 4 frames\r\nCodec ID                                 : avc1\r\nCodec ID/Info                            : Advanced Video Coding\r\nDuration                                 : 1 h 18 min\r\nBit rate                                 : 1 500 kb/s\r\nWidth                                    : 720 pixels\r\nHeight                                   : 352 pixels\r\nDisplay aspect ratio                     : 2.045\r\nFrame rate mode                          : Constant\r\nFrame rate                               : 23.976 (23976/1000) FPS\r\nColor space                              : YUV\r\nChroma subsampling                       : 4:2:0\r\nBit depth                                : 8 bits\r\nScan type                                : Progressive\r\nBits/(Pixel*Frame)                       : 0.247\r\nStream size                              : 838 MiB (92%)\r\n\r\nAudio\r\nID                                       : 2\r\nFormat                                   : AC-3\r\nFormat/Info                              : Audio Coding 3\r\nCodec ID                                 : ac-3\r\nDuration                                 : 1 h 18 min\r\nBit rate mode                            : Constant\r\nBit rate                                 : 128 kb/s\r\nChannel(s)                               : 2 channels\r\nChannel positions                        : Front: L R\r\nSampling rate                            : 48.0 kHz\r\nFrame rate                               : 31.250 FPS (1536 SPF)\r\nBit depth                                : 16 bits\r\nCompression mode                         : Lossy\r\nStream size                              : 71.8 MiB (8%)\r\nService kind                             : Complete Main\r\nDefault                                  : Yes\r\nAlternate group                          : 1","last_updated":"2018-03-19T12:03:35.046Z","parsed":{"xt":"urn:btih:16d758fe2b0f490aa7471a6f49621dea8f2c1f10","dn":"Anne.2018.HDRip.XviD.AC3.LLG","tr":["udp://exodus.desync.com:6969","udp://open.demonii.com:1337","udp://tracker.coppersurfer.tk:6969","udp://tracker.leechers-paradise.org:6969","udp://zer0day.ch:1337"],"infoHash":"16d758fe2b0f490aa7471a6f49621dea8f2c1f10","infoHashBuffer":{"type":"Buffer","data":[22,215,88,254,43,15,73,10,167,71,26,111,73,98,29,234,143,44,31,16]},"name":"Anne.2018.HDRip.XviD.AC3.LLG","announce":["udp://exodus.desync.com:6969","udp://open.demonii.com:1337","udp://tracker.coppersurfer.tk:6969","udp://tracker.leechers-paradise.org:6969","udp://zer0day.ch:1337"],"urlList":[]}}